<svg width="24" height="25" viewBox="0 0 24 25" fill="none" xmlns="http://www.w3.org/2000/svg">
<path d="M21 13.6961C18.2207 14.8211 15.1827 15.4407 12 15.4407C8.8173 15.4407 5.7793 14.8211 3 13.6961M16 6.44067V4.44067C16 3.3361 15.1046 2.44067 14 2.44067H10C8.89543 2.44067 8 3.3361 8 4.44067V6.44067M12 12.4407H12.01M5 20.4407H19C20.1046 20.4407 21 19.5452 21 18.4407V8.44067C21 7.3361 20.1046 6.44067 19 6.44067H5C3.89543 6.44067 3 7.3361 3 8.44067V18.4407C3 19.5452 3.89543 20.4407 5 20.4407Z" stroke="#717171" stroke-linecap="round" stroke-linejoin="round"/>
</svg>
