<svg width="20" height="20" viewBox="0 0 20 20" fill="none" xmlns="http://www.w3.org/2000/svg">
<g id="Group">
<path id="Vector" d="M18.222 7.15991H16.888C16.903 7.06991 16.916 6.97791 16.916 6.88291V4.56991C16.916 3.58991 16.119 2.79291 15.138 2.79291H1.5V1.35791C1.5 0.94391 1.164 0.60791 0.75 0.60791C0.336 0.60791 0 0.94391 0 1.35791V18.8299C0 19.2449 0.336 19.5799 0.75 19.5799C1.164 19.5799 1.5 19.2449 1.5 18.8299V17.3959H12.056C13.036 17.3959 13.834 16.5989 13.834 15.6189V13.3059C13.834 13.2109 13.82 13.1189 13.806 13.0279H18.223C19.203 13.0279 20.001 12.2299 20.001 11.2499V8.93991C20.001 7.95691 19.204 7.15991 18.223 7.15991H18.222ZM15.14 4.29291C15.292 4.29291 15.417 4.41691 15.417 4.56991V6.87991C15.417 7.03391 15.292 7.15991 15.139 7.15991H1.5V4.28991H15.14V4.29291ZM12.333 13.3069V15.6189C12.333 15.7719 12.208 15.8959 12.055 15.8959H1.5V13.0279H12.056C12.209 13.0279 12.333 13.1539 12.333 13.3079V13.3069ZM18.5 11.2499C18.5 11.4029 18.375 11.5269 18.222 11.5269H1.5V8.65991H18.222C18.375 8.65991 18.5 8.78391 18.5 8.93691V11.2499Z" fill="#242424"/>
</g>
</svg>
