<svg width="25" height="25" viewBox="0 0 25 25" fill="none" xmlns="http://www.w3.org/2000/svg">
<path d="M3.75 0.25C1.817 0.25 0.25 1.817 0.25 3.75V7.25C0.25 9.183 1.817 10.75 3.75 10.75H7.25C9.183 10.75 10.75 9.183 10.75 7.25V3.75C10.75 1.817 9.183 0.25 7.25 0.25H3.75Z" fill="#111827"/>
<path d="M3.75 14.25C1.817 14.25 0.25 15.817 0.25 17.75V21.25C0.25 23.183 1.817 24.75 3.75 24.75H7.25C9.183 24.75 10.75 23.183 10.75 21.25V17.75C10.75 15.817 9.183 14.25 7.25 14.25H3.75Z" fill="#111827"/>
<path d="M14.25 3.75C14.25 1.817 15.817 0.25 17.75 0.25H21.25C23.183 0.25 24.75 1.817 24.75 3.75V7.25C24.75 9.183 23.183 10.75 21.25 10.75H17.75C15.817 10.75 14.25 9.183 14.25 7.25V3.75Z" fill="#111827"/>
<path d="M14.25 17.75C14.25 15.817 15.817 14.25 17.75 14.25H21.25C23.183 14.25 24.75 15.817 24.75 17.75V21.25C24.75 23.183 23.183 24.75 21.25 24.75H17.75C15.817 24.75 14.25 23.183 14.25 21.25V17.75Z" fill="#111827"/>
</svg>
