<svg width="31" height="27" viewBox="0 0 31 27" fill="none" xmlns="http://www.w3.org/2000/svg">
<path d="M5.41265 0C4.76728 0 4.15193 0.21 3.5816 0.63C3.01127 1.05 2.68108 1.59 2.531 2.25L0.985114 8.865C0.609899 10.5 0.910071 11.88 1.85561 13.095C2.03572 13.275 2.21582 13.455 2.38091 13.605C3.26642 14.46 4.24198 15 5.65279 15C7.06359 15 8.18924 14.385 9.02972 13.575C9.97526 14.505 11.1159 15 12.5267 15C13.7874 15 14.9881 14.445 15.8286 13.605C16.8492 14.55 18.0049 15 19.2806 15C20.5863 15 21.697 14.505 22.6425 13.575C23.498 14.43 24.6236 15 26.0495 15C27.4753 15 28.4809 14.475 29.3363 13.59C29.4714 13.455 29.6065 13.305 29.7566 13.155C30.7472 11.925 31.0473 10.5 30.6721 8.865L29.1262 2.25C28.9311 1.59 28.5859 1.05 28.0306 0.63C27.4903 0.21 26.905 0 26.2446 0M26.1695 2.955L27.7905 9.57C27.9255 10.215 27.7905 10.8 27.3702 11.325C26.995 11.79 26.5297 12 25.9594 12C25.4941 12 25.0889 11.85 24.7587 11.49C24.4285 11.145 24.2484 10.74 24.2034 10.26L23.2879 3M5.41265 3H8.36934L7.45382 10.26C7.27371 11.445 6.68838 12 5.69781 12C5.08246 12 4.61719 11.79 4.287 11.325C3.86676 10.8 3.73169 10.215 3.86676 9.57M11.4011 3H14.3278V10.05C14.3278 10.575 14.1627 11.025 13.7874 11.43C13.4122 11.82 12.947 12 12.3766 12C11.8663 12 11.4311 11.82 11.0859 11.385C10.7407 10.95 10.5756 10.5 10.5756 9.99V9.75M17.3295 3H20.2561L21.0816 9.75C21.2017 10.38 21.0816 10.905 20.6464 11.355C20.2561 11.805 19.7459 12 19.1305 12C18.6652 12 18.245 11.82 17.8698 11.43C17.4946 11.025 17.3295 10.575 17.3295 10.05M2.32088 16.545V24C2.32088 25.665 3.65664 27 5.3226 27C12.3316 27 19.3256 27 26.3346 27C27.9856 27 29.3363 25.665 29.3363 24V16.575C28.5109 17.445 27.4603 17.94 26.3346 18C24.8338 18.045 23.7081 17.61 22.6425 16.575C21.742 17.475 20.5413 18 19.2806 18C17.9298 18 16.7291 17.46 15.8286 16.605C14.9731 17.46 13.8025 18 12.4967 18C11.1309 18 9.93023 17.475 9.02972 16.575C8.15922 17.46 6.97354 18 5.66779 18C4.31702 18 3.31145 17.475 2.32088 16.545Z" fill="#262626"/>
</svg>
