<svg width="15" height="15" viewBox="0 0 15 15" fill="none" xmlns="http://www.w3.org/2000/svg">
<circle cx="7.15039" cy="7.62451" r="6.5" fill="white"/>
<g clip-path="url(#clip0_1460_4685)">
<path d="M12.3999 7.87451C12.3999 7.08451 11.9624 6.39951 11.3259 6.07451C11.4029 5.85701 11.4449 5.62201 11.4449 5.37451C11.4449 4.26951 10.5899 3.37551 9.53591 3.37551C9.30091 3.37551 9.07591 3.41751 8.86791 3.50051C8.55891 2.83201 7.90491 2.37451 7.14991 2.37451C6.39491 2.37451 5.74191 2.83301 5.43141 3.49951C5.22391 3.41701 4.99841 3.37451 4.76341 3.37451C3.70841 3.37451 2.85441 4.26951 2.85441 5.37451C2.85441 5.62151 2.89591 5.85651 2.97291 6.07451C2.33691 6.39951 1.89941 7.08351 1.89941 7.87451C1.89941 8.62201 2.29041 9.27351 2.87041 9.61751C2.86041 9.70251 2.85441 9.78751 2.85441 9.87451C2.85441 10.9795 3.70841 11.8745 4.76341 11.8745C4.99841 11.8745 5.22341 11.8315 5.43091 11.7495C5.74091 12.4165 6.39391 12.8745 7.14941 12.8745C7.90541 12.8745 8.55841 12.4165 8.86791 11.7495C9.07541 11.831 9.30041 11.8735 9.53591 11.8735C10.5909 11.8735 11.4449 10.9785 11.4449 9.87351C11.4449 9.78651 11.4389 9.70151 11.4284 9.61701C12.0074 9.27351 12.3999 8.62201 12.3999 7.87501V7.87451ZM9.09191 6.20751L6.92491 9.45751C6.85241 9.56601 6.73391 9.62451 6.61241 9.62451C6.54091 9.62451 6.46841 9.60451 6.40441 9.56151L6.34691 9.51451L5.13941 8.30701C4.99291 8.16051 4.99291 7.92301 5.13941 7.77701C5.28591 7.63101 5.52341 7.63001 5.66941 7.77701L6.55441 8.66051L8.46691 5.79051C8.58191 5.61801 8.81491 5.57251 8.98691 5.68701C9.15991 5.80201 9.20691 6.03501 9.09191 6.20701V6.20751Z" fill="#FFA800"/>
</g>
<defs>
<clipPath id="clip0_1460_4685">
<rect width="12" height="12" fill="white" transform="translate(1.15039 1.62451)"/>
</clipPath>
</defs>
</svg>
