<svg width="15" height="20" viewBox="0 0 15 20" fill="none" xmlns="http://www.w3.org/2000/svg">
<path d="M13.524 4.98955L9.20828 1.09235C8.03196 0.0285966 6.22626 0.0866194 5.09491 1.21807L1.34116 4.99922C0.591909 5.75352 0 7.3008 0 8.51923V15.1919C0 17.6578 1.55095 19.6693 3.46154 19.6693H11.5385C13.449 19.6693 15 17.6675 15 15.2015V8.64494C15 7.33948 14.3482 5.73418 13.524 4.98955ZM8.06193 15.8011C8.06193 16.1976 7.80718 16.5264 7.49999 16.5264C7.1928 16.5264 6.93805 16.1976 6.93805 15.8011V12.9C6.93805 12.5035 7.1928 12.1747 7.49999 12.1747C7.80718 12.1747 8.06193 12.5035 8.06193 12.9V15.8011Z" fill="#F1C644"/>
</svg>
