<svg width="22" height="22" viewBox="0 0 22 22" fill="none" xmlns="http://www.w3.org/2000/svg">
<g id="Group">
<path id="Vector" d="M11 21.75C5.072 21.75 0.25 16.928 0.25 11C0.25 5.072 5.072 0.25 11 0.25C16.928 0.25 21.75 5.072 21.75 11C21.75 16.928 16.928 21.75 11 21.75ZM11 1.75C5.9 1.75 1.75 5.9 1.75 11C1.75 16.1 5.9 20.25 11 20.25C16.1 20.25 20.25 16.1 20.25 11C20.25 5.9 16.1 1.75 11 1.75Z" fill="#242424"/>
<path id="Vector_2" d="M10.9998 16.1151C9.10776 16.1151 7.36676 15.1651 6.34376 13.5711C6.11976 13.2231 6.22076 12.7611 6.56976 12.5361C6.91776 12.3101 7.38176 12.4121 7.60576 12.7621C8.35276 13.9241 9.62176 14.6171 11.0008 14.6171C12.3798 14.6171 13.6488 13.9241 14.3968 12.7631C14.6208 12.4131 15.0848 12.3131 15.4328 12.5381C15.7828 12.7621 15.8828 13.2261 15.6588 13.5741C14.6338 15.1681 12.8928 16.1191 11.0008 16.1191L10.9998 16.1151Z" fill="#242424"/>
<path id="Vector_3" d="M13.7378 9.93598C14.554 9.93598 15.2158 9.27426 15.2158 8.45798C15.2158 7.6417 14.554 6.97998 13.7378 6.97998C12.9215 6.97998 12.2598 7.6417 12.2598 8.45798C12.2598 9.27426 12.9215 9.93598 13.7378 9.93598Z" fill="#242424"/>
<path id="Vector_4" d="M8.26218 9.93598C9.07846 9.93598 9.74018 9.27426 9.74018 8.45798C9.74018 7.6417 9.07846 6.97998 8.26218 6.97998C7.4459 6.97998 6.78418 7.6417 6.78418 8.45798C6.78418 9.27426 7.4459 9.93598 8.26218 9.93598Z" fill="#242424"/>
</g>
</svg>
