<svg width="22" height="21" viewBox="0 0 22 21" fill="none" xmlns="http://www.w3.org/2000/svg">
<g id="Group">
<path id="Vector" d="M18.0004 8.50005V6.80005H13.6004V13.2H15.3004V11.2H17.3004V9.50005H15.3004V8.50005H18.0004ZM10.7004 6.80005H12.4004V13.2H10.7004V6.80005ZM7.10039 8.40005C7.50039 8.40005 8.00039 8.60005 8.30039 8.90005L9.50039 7.90005C8.90039 7.20005 8.00039 6.80005 7.10039 6.80005C5.30039 6.80005 3.90039 8.20005 3.90039 10C3.90039 11.8 5.30039 13.2 7.10039 13.2C8.10039 13.2 8.90039 12.8 9.50039 12.1V9.60005H6.70039V10.8H7.90039V11.4C7.70039 11.5 7.40039 11.6 7.10039 11.6C6.20039 11.6 5.50039 10.9 5.50039 10C5.50039 9.20005 6.20039 8.40005 7.10039 8.40005Z" fill="#242424"/>
<path id="Vector_2" d="M19.5 0.0200195H2.5C1.26 0.0200195 0.25 1.02702 0.25 2.26702V17.774C0.25 19.012 1.26 20.02 2.5 20.02H19.5C20.74 20.02 21.75 19.012 21.75 17.774V2.26702C21.75 1.02702 20.74 0.0200195 19.5 0.0200195ZM20.25 17.774C20.25 18.184 19.914 18.52 19.5 18.52H2.5C2.086 18.52 1.75 18.184 1.75 17.774V2.26702C1.75 1.85502 2.086 1.52002 2.5 1.52002H19.5C19.914 1.52002 20.25 1.85502 20.25 2.26702V17.774Z" fill="#242424"/>
</g>
</svg>
